<?xml version="1.0"?>
<svg xmlns="http://www.w3.org/2000/svg" xmlns:xlink="http://www.w3.org/1999/xlink" xmlns:svgjs="http://svgjs.com/svgjs" version="1.1" width="512" height="512" x="0" y="0" viewBox="0 0 316.378 316.377" style="enable-background:new 0 0 512 512" xml:space="preserve" class=""><g>
<g xmlns="http://www.w3.org/2000/svg">
	<path d="M305.773,130.393h-80.411l-17.031-33.767c-2.076-4.104-6.519-6.405-11.086-5.706c-4.541,0.701-8.114,4.248-8.854,8.782   l-7.612,46.877l-7.207,44.377l-5.608-43.805l-12.407-96.88c-0.637-4.948-4.629-8.779-9.592-9.215   c-4.974-0.388-9.564,2.646-11.05,7.402l-31.682,101.582l-9.518,30.518l-4.847-29.876l-7.161-44.151   c-0.754-4.629-4.456-8.215-9.106-8.818c-4.645-0.567-9.147,1.914-11.05,6.204l-17.663,39.667H10.605   C4.751,143.584,0,148.335,0,154.189c0,5.854,4.751,10.603,10.605,10.603h40.172c4.189,0,7.985-2.465,9.686-6.292l2.975-6.674   l3.029-6.799l1.069,6.613l12.44,76.708c0.784,4.857,4.81,8.528,9.719,8.881c4.909,0.3,9.406-2.724,10.875-7.415l25.191-80.779   l14.934-47.869l6.007,46.937l15.107,117.994c0.668,5.22,5.072,9.165,10.338,9.258c0.058,0,0.119,0,0.182,0   c5.188,0,9.631-3.764,10.47-8.911l19.62-120.834l1.673-10.286l5.033,9.991l0.228,0.456c1.802,3.578,5.468,5.833,9.476,5.833h86.946   c5.856,0,10.604-4.751,10.604-10.605C316.378,135.144,311.63,130.393,305.773,130.393z" fill="#1db954" data-original="#000000" style="" class=""/>
</g>
<g xmlns="http://www.w3.org/2000/svg">
</g>
<g xmlns="http://www.w3.org/2000/svg">
</g>
<g xmlns="http://www.w3.org/2000/svg">
</g>
<g xmlns="http://www.w3.org/2000/svg">
</g>
<g xmlns="http://www.w3.org/2000/svg">
</g>
<g xmlns="http://www.w3.org/2000/svg">
</g>
<g xmlns="http://www.w3.org/2000/svg">
</g>
<g xmlns="http://www.w3.org/2000/svg">
</g>
<g xmlns="http://www.w3.org/2000/svg">
</g>
<g xmlns="http://www.w3.org/2000/svg">
</g>
<g xmlns="http://www.w3.org/2000/svg">
</g>
<g xmlns="http://www.w3.org/2000/svg">
</g>
<g xmlns="http://www.w3.org/2000/svg">
</g>
<g xmlns="http://www.w3.org/2000/svg">
</g>
<g xmlns="http://www.w3.org/2000/svg">
</g>
</g></svg>
